<svg width="300" height="80" viewBox="0 0 300 80" fill="none" xmlns="http://www.w3.org/2000/svg">
                <g transform="translate(10, 10)">
                    <path d="M5 45C5 45 15 45 25 35C35 25 45 35 45 35V15C45 15 35 5 25 15C15 25 5 25 5 25V45Z" fill="#2563EB" stroke="#1E40AF" stroke-width="2" stroke-linejoin="round"></path>
                    <path d="M45 35C45 35 55 25 65 15C75 5 85 15 85 15V35C85 35 75 25 65 35C55 45 45 35 45 35Z" fill="#3B82F6" stroke="#1E40AF" stroke-width="2" stroke-linejoin="round"></path>
                    <path d="M45 35V15" stroke="#1E40AF" stroke-width="2" stroke-linecap="round"></path>
                    <path d="M45 0L48 10L55 5L50 13L58 18L48 20L45 30L42 20L32 18L40 13L35 5L42 10L45 0Z" fill="#F59E0B"></path>
                </g>
                <text x="100" y="40" font-family="Arial, Helvetica, sans-serif" font-weight="bold" font-size="28" fill="#1E3A8A">SPT Classes</text>
                <text x="100" y="60" font-family="Arial, Helvetica, sans-serif" font-size="14" fill="#6B7280" letter-spacing="1">EDUCATION &amp; SERVICES</text>
            </svg>